<svg width="500" height="500" viewBox="0 0 500 500" fill="none" xmlns="http://www.w3.org/2000/svg">
<rect x="6.5" y="6.5" width="487" height="487" rx="43.5" stroke="url(#paint0_linear_12_6)" stroke-width="13"/>
<path d="M158.676 232.75C145.176 232.75 132.676 230.583 121.176 226.25C109.676 221.75 99.6758 215.5 91.1758 207.5C82.8424 199.333 76.3424 189.75 71.6758 178.75C67.0091 167.75 64.6758 155.667 64.6758 142.5C64.6758 129.333 67.0091 117.25 71.6758 106.25C76.3424 95.25 82.9258 85.75 91.4258 77.75C99.9258 69.5833 109.926 63.3333 121.426 59C132.926 54.5 145.426 52.25 158.926 52.25C173.592 52.25 186.926 54.8333 198.926 60C211.092 65 221.259 72.4167 229.426 82.25L206.176 104.25C200.009 97.4167 193.092 92.3333 185.426 89C177.759 85.5 169.509 83.75 160.676 83.75C152.009 83.75 144.092 85.1667 136.926 88C129.759 90.8333 123.509 94.9167 118.176 100.25C112.842 105.417 108.676 111.583 105.676 118.75C102.842 125.917 101.426 133.833 101.426 142.5C101.426 151.167 102.842 159.083 105.676 166.25C108.676 173.417 112.842 179.667 118.176 185C123.509 190.167 129.759 194.167 136.926 197C144.092 199.833 152.009 201.25 160.676 201.25C169.509 201.25 177.759 199.583 185.426 196.25C193.092 192.75 200.009 187.5 206.176 180.5L229.426 202.5C221.259 212.333 211.092 219.833 198.926 225C186.926 230.167 173.509 232.75 158.676 232.75ZM338.631 232.75C324.964 232.75 312.298 230.5 300.631 226C289.131 221.5 279.048 215.167 270.381 207C261.881 198.833 255.298 189.333 250.631 178.5C245.964 167.5 243.631 155.5 243.631 142.5C243.631 129.5 245.964 117.583 250.631 106.75C255.298 95.75 261.881 86.1667 270.381 78C279.048 69.8333 289.131 63.5 300.631 59C312.298 54.5 324.964 52.25 338.631 52.25C352.298 52.25 364.881 54.5 376.381 59C387.881 63.5 397.881 69.8333 406.381 78C415.048 86 421.714 95.5 426.381 106.5C431.048 117.5 433.381 129.5 433.381 142.5C433.381 155.5 431.048 167.5 426.381 178.5C421.714 189.5 415.048 199.083 406.381 207.25C397.881 215.25 387.881 221.5 376.381 226C364.881 230.5 352.298 232.75 338.631 232.75ZM338.631 201.25C346.964 201.25 354.631 199.833 361.631 197C368.631 194.167 374.714 190.167 379.881 185C385.214 179.667 389.298 173.417 392.131 166.25C395.131 159.083 396.631 151.167 396.631 142.5C396.631 133.833 395.131 125.917 392.131 118.75C389.298 111.583 385.214 105.417 379.881 100.25C374.714 94.9167 368.631 90.8333 361.631 88C354.631 85.1667 346.964 83.75 338.631 83.75C330.298 83.75 322.548 85.1667 315.381 88C308.381 90.8333 302.214 94.9167 296.881 100.25C291.714 105.583 287.631 111.833 284.631 119C281.798 126 280.381 133.833 280.381 142.5C280.381 151 281.798 158.833 284.631 166C287.631 173.167 291.714 179.417 296.881 184.75C302.214 190.083 308.381 194.167 315.381 197C322.548 199.833 330.298 201.25 338.631 201.25ZM156.59 452.75C142.757 452.75 129.507 450.833 116.84 447C104.173 443.167 94.0065 438.25 86.3398 432.25L99.0898 404.25C106.257 409.75 115.007 414.25 125.34 417.75C135.673 421.25 146.173 423 156.84 423C165.34 423 172.257 422.083 177.59 420.25C182.923 418.417 186.757 416 189.09 413C191.59 409.833 192.84 406.25 192.84 402.25C192.84 397.25 190.923 393.25 187.09 390.25C183.423 387.25 178.59 384.833 172.59 383C166.59 381.167 159.923 379.417 152.59 377.75C145.257 376.083 137.923 374.167 130.59 372C123.257 369.667 116.507 366.667 110.34 363C104.34 359.333 99.4232 354.5 95.5898 348.5C91.9232 342.5 90.0898 334.833 90.0898 325.5C90.0898 315.833 92.6732 307 97.8398 299C103.173 290.833 111.173 284.333 121.84 279.5C132.507 274.667 146.007 272.25 162.34 272.25C173.007 272.25 183.59 273.583 194.09 276.25C204.59 278.917 213.84 282.75 221.84 287.75L210.34 315.75C202.34 311.083 194.173 307.667 185.84 305.5C177.673 303.167 169.673 302 161.84 302C153.507 302 146.673 303 141.34 305C136.007 307 132.173 309.667 129.84 313C127.507 316.167 126.34 319.75 126.34 323.75C126.34 328.75 128.173 332.75 131.84 335.75C135.673 338.75 140.59 341.167 146.59 343C152.59 344.667 159.257 346.333 166.59 348C173.923 349.667 181.257 351.667 188.59 354C195.923 356.167 202.59 359.083 208.59 362.75C214.757 366.25 219.673 371 223.34 377C227.173 382.833 229.09 390.333 229.09 399.5C229.09 409.167 226.423 418 221.09 426C215.923 434 207.923 440.5 197.09 445.5C186.423 450.333 172.923 452.75 156.59 452.75ZM341.293 452.75C327.793 452.75 315.293 450.583 303.793 446.25C292.293 441.75 282.293 435.5 273.793 427.5C265.46 419.333 258.96 409.75 254.293 398.75C249.626 387.75 247.293 375.667 247.293 362.5C247.293 349.333 249.626 337.25 254.293 326.25C258.96 315.25 265.543 305.75 274.043 297.75C282.543 289.583 292.543 283.333 304.043 279C315.543 274.5 328.043 272.25 341.543 272.25C356.21 272.25 369.543 274.833 381.543 280C393.71 285 403.876 292.417 412.043 302.25L388.793 324.25C382.626 317.417 375.71 312.333 368.043 309C360.376 305.5 352.126 303.75 343.293 303.75C334.626 303.75 326.71 305.167 319.543 308C312.376 310.833 306.126 314.917 300.793 320.25C295.46 325.417 291.293 331.583 288.293 338.75C285.46 345.917 284.043 353.833 284.043 362.5C284.043 371.167 285.46 379.083 288.293 386.25C291.293 393.417 295.46 399.667 300.793 405C306.126 410.167 312.376 414.167 319.543 417C326.71 419.833 334.626 421.25 343.293 421.25C352.126 421.25 360.376 419.583 368.043 416.25C375.71 412.75 382.626 407.5 388.793 400.5L412.043 422.5C403.876 432.333 393.71 439.833 381.543 445C369.543 450.167 356.126 452.75 341.293 452.75Z" fill="url(#paint1_linear_12_6)"/>
<defs>
<linearGradient id="paint0_linear_12_6" x1="37" y1="37" x2="458" y2="463" gradientUnits="userSpaceOnUse">
<stop offset="0.104167" stop-color="#AA812D"/>
<stop offset="0.270833" stop-color="#D0B762"/>
<stop offset="0.625" stop-color="#F5EFAF"/>
<stop offset="0.880208" stop-color="#D2B863"/>
</linearGradient>
<linearGradient id="paint1_linear_12_6" x1="54" y1="30" x2="444" y2="470" gradientUnits="userSpaceOnUse">
<stop offset="0.0980999" stop-color="#AA812D"/>
<stop offset="0.253927" stop-color="#D0B762"/>
<stop offset="0.63644" stop-color="#F5EFAF"/>
<stop offset="0.912899" stop-color="#D2B863"/>
</linearGradient>
</defs>
</svg>
