<svg id="visual" viewBox="0 0 960 540" width="960" height="540" xmlns="http://www.w3.org/2000/svg" xmlns:xlink="http://www.w3.org/1999/xlink" version="1.1"><path d="M0 33L26.7 35.8C53.3 38.7 106.7 44.3 160 48C213.3 51.7 266.7 53.3 320 62.3C373.3 71.3 426.7 87.7 480 94C533.3 100.3 586.7 96.7 640 87.7C693.3 78.7 746.7 64.3 800 63.3C853.3 62.3 906.7 74.7 933.3 80.8L960 87L960 0L933.3 0C906.7 0 853.3 0 800 0C746.7 0 693.3 0 640 0C586.7 0 533.3 0 480 0C426.7 0 373.3 0 320 0C266.7 0 213.3 0 160 0C106.7 0 53.3 0 26.7 0L0 0Z" fill="#0c3640"></path><path d="M0 39L26.7 44.3C53.3 49.7 106.7 60.3 160 68.3C213.3 76.3 266.7 81.7 320 89.8C373.3 98 426.7 109 480 115.3C533.3 121.7 586.7 123.3 640 113.3C693.3 103.3 746.7 81.7 800 80.8C853.3 80 906.7 100 933.3 110L960 120L960 85L933.3 78.8C906.7 72.7 853.3 60.3 800 61.3C746.7 62.3 693.3 76.7 640 85.7C586.7 94.7 533.3 98.3 480 92C426.7 85.7 373.3 69.3 320 60.3C266.7 51.3 213.3 49.7 160 46C106.7 42.3 53.3 36.7 26.7 33.8L0 31Z" fill="#112c39"></path><path d="M0 66L26.7 71.3C53.3 76.7 106.7 87.3 160 93.7C213.3 100 266.7 102 320 112C373.3 122 426.7 140 480 151.7C533.3 163.3 586.7 168.7 640 156C693.3 143.3 746.7 112.7 800 110C853.3 107.3 906.7 132.7 933.3 145.3L960 158L960 118L933.3 108C906.7 98 853.3 78 800 78.8C746.7 79.7 693.3 101.3 640 111.3C586.7 121.3 533.3 119.7 480 113.3C426.7 107 373.3 96 320 87.8C266.7 79.7 213.3 74.3 160 66.3C106.7 58.3 53.3 47.7 26.7 42.3L0 37Z" fill="#15222f"></path><path d="M0 98L26.7 102.5C53.3 107 106.7 116 160 118.7C213.3 121.3 266.7 117.7 320 124C373.3 130.3 426.7 146.7 480 159.3C533.3 172 586.7 181 640 168.3C693.3 155.7 746.7 121.3 800 120.5C853.3 119.7 906.7 152.3 933.3 168.7L960 185L960 156L933.3 143.3C906.7 130.7 853.3 105.3 800 108C746.7 110.7 693.3 141.3 640 154C586.7 166.7 533.3 161.3 480 149.7C426.7 138 373.3 120 320 110C266.7 100 213.3 98 160 91.7C106.7 85.3 53.3 74.7 26.7 69.3L0 64Z" fill="#151824"></path><path d="M0 158L26.7 159.7C53.3 161.3 106.7 164.7 160 160.2C213.3 155.7 266.7 143.3 320 151.5C373.3 159.7 426.7 188.3 480 205.3C533.3 222.3 586.7 227.7 640 215C693.3 202.3 746.7 171.7 800 166.3C853.3 161 906.7 181 933.3 191L960 201L960 183L933.3 166.7C906.7 150.3 853.3 117.7 800 118.5C746.7 119.3 693.3 153.7 640 166.3C586.7 179 533.3 170 480 157.3C426.7 144.7 373.3 128.3 320 122C266.7 115.7 213.3 119.3 160 116.7C106.7 114 53.3 105 26.7 100.5L0 96Z" fill="#120e18"></path><path d="M0 195L26.7 194.2C53.3 193.3 106.7 191.7 160 182.7C213.3 173.7 266.7 157.3 320 164.5C373.3 171.7 426.7 202.3 480 222.2C533.3 242 586.7 251 640 240.2C693.3 229.3 746.7 198.7 800 191.5C853.3 184.3 906.7 200.7 933.3 208.8L960 217L960 199L933.3 189C906.7 179 853.3 159 800 164.3C746.7 169.7 693.3 200.3 640 213C586.7 225.7 533.3 220.3 480 203.3C426.7 186.3 373.3 157.7 320 149.5C266.7 141.3 213.3 153.7 160 158.2C106.7 162.7 53.3 159.3 26.7 157.7L0 156Z" fill="#0f0913"></path><path d="M0 341L26.7 348.2C53.3 355.3 106.7 369.7 160 368.8C213.3 368 266.7 352 320 337.7C373.3 323.3 426.7 310.7 480 311.5C533.3 312.3 586.7 326.7 640 332C693.3 337.3 746.7 333.7 800 341.8C853.3 350 906.7 370 933.3 380L960 390L960 215L933.3 206.8C906.7 198.7 853.3 182.3 800 189.5C746.7 196.7 693.3 227.3 640 238.2C586.7 249 533.3 240 480 220.2C426.7 200.3 373.3 169.7 320 162.5C266.7 155.3 213.3 171.7 160 180.7C106.7 189.7 53.3 191.3 26.7 192.2L0 193Z" fill="#0f0913"></path><path d="M0 357L26.7 367.8C53.3 378.7 106.7 400.3 160 401.3C213.3 402.3 266.7 382.7 320 367.3C373.3 352 426.7 341 480 343.7C533.3 346.3 586.7 362.7 640 369C693.3 375.3 746.7 371.7 800 380.7C853.3 389.7 906.7 411.3 933.3 422.2L960 433L960 388L933.3 378C906.7 368 853.3 348 800 339.8C746.7 331.7 693.3 335.3 640 330C586.7 324.7 533.3 310.3 480 309.5C426.7 308.7 373.3 321.3 320 335.7C266.7 350 213.3 366 160 366.8C106.7 367.7 53.3 353.3 26.7 346.2L0 339Z" fill="#120e18"></path><path d="M0 411L26.7 420C53.3 429 106.7 447 160 448C213.3 449 266.7 433 320 423.2C373.3 413.3 426.7 409.7 480 413.2C533.3 416.7 586.7 427.3 640 434.5C693.3 441.7 746.7 445.3 800 454.3C853.3 463.3 906.7 477.7 933.3 484.8L960 492L960 431L933.3 420.2C906.7 409.3 853.3 387.7 800 378.7C746.7 369.7 693.3 373.3 640 367C586.7 360.7 533.3 344.3 480 341.7C426.7 339 373.3 350 320 365.3C266.7 380.7 213.3 400.3 160 399.3C106.7 398.3 53.3 376.7 26.7 365.8L0 355Z" fill="#151824"></path><path d="M0 449L26.7 456.2C53.3 463.3 106.7 477.7 160 476.8C213.3 476 266.7 460 320 450.2C373.3 440.3 426.7 436.7 480 439.3C533.3 442 586.7 451 640 460C693.3 469 746.7 478 800 486.2C853.3 494.3 906.7 501.7 933.3 505.3L960 509L960 490L933.3 482.8C906.7 475.7 853.3 461.3 800 452.3C746.7 443.3 693.3 439.7 640 432.5C586.7 425.3 533.3 414.7 480 411.2C426.7 407.7 373.3 411.3 320 421.2C266.7 431 213.3 447 160 446C106.7 445 53.3 427 26.7 418L0 409Z" fill="#15222f"></path><path d="M0 503L26.7 504.8C53.3 506.7 106.7 510.3 160 508.5C213.3 506.7 266.7 499.3 320 494C373.3 488.7 426.7 485.3 480 487.2C533.3 489 586.7 496 640 502.2C693.3 508.3 746.7 513.7 800 516.3C853.3 519 906.7 519 933.3 519L960 519L960 507L933.3 503.3C906.7 499.7 853.3 492.3 800 484.2C746.7 476 693.3 467 640 458C586.7 449 533.3 440 480 437.3C426.7 434.7 373.3 438.3 320 448.2C266.7 458 213.3 474 160 474.8C106.7 475.7 53.3 461.3 26.7 454.2L0 447Z" fill="#112c39"></path><path d="M0 541L26.7 541C53.3 541 106.7 541 160 541C213.3 541 266.7 541 320 541C373.3 541 426.7 541 480 541C533.3 541 586.7 541 640 541C693.3 541 746.7 541 800 541C853.3 541 906.7 541 933.3 541L960 541L960 517L933.3 517C906.7 517 853.3 517 800 514.3C746.7 511.7 693.3 506.3 640 500.2C586.7 494 533.3 487 480 485.2C426.7 483.3 373.3 486.7 320 492C266.7 497.3 213.3 504.7 160 506.5C106.7 508.3 53.3 504.7 26.7 502.8L0 501Z" fill="#0c3640"></path></svg>