<svg id="visual" viewBox="0 0 960 540" width="960" height="540" xmlns="http://www.w3.org/2000/svg" xmlns:xlink="http://www.w3.org/1999/xlink" version="1.1"><rect width="960" height="540" fill="#0f0913"></rect><g><g transform="translate(839 418)"><path d="M0 -39.4L34.1 -19.7L34.1 19.7L0 39.4L-34.1 19.7L-34.1 -19.7Z" fill="none" stroke="#0c3640" stroke-width="2"></path></g><g transform="translate(709 134)"><path d="M0 -38L32.9 -19L32.9 19L0 38L-32.9 19L-32.9 -19Z" fill="none" stroke="#0c3640" stroke-width="2"></path></g><g transform="translate(624 471)"><path d="M0 -35L30.3 -17.5L30.3 17.5L0 35L-30.3 17.5L-30.3 -17.5Z" fill="none" stroke="#0c3640" stroke-width="2"></path></g><g transform="translate(287 412)"><path d="M0 -23L19.9 -11.5L19.9 11.5L0 23L-19.9 11.5L-19.9 -11.5Z" fill="none" stroke="#0c3640" stroke-width="2"></path></g><g transform="translate(583 305)"><path d="M0 -24L20.8 -12L20.8 12L0 24L-20.8 12L-20.8 -12Z" fill="none" stroke="#0c3640" stroke-width="2"></path></g><g transform="translate(150 315)"><path d="M0 -27L23.4 -13.5L23.4 13.5L0 27L-23.4 13.5L-23.4 -13.5Z" fill="none" stroke="#0c3640" stroke-width="2"></path></g><g transform="translate(472 250)"><path d="M0 -20L17.3 -10L17.3 10L0 20L-17.3 10L-17.3 -10Z" fill="none" stroke="#0c3640" stroke-width="2"></path></g><g transform="translate(678 253)"><path d="M0 -27L23.4 -13.5L23.4 13.5L0 27L-23.4 13.5L-23.4 -13.5Z" fill="none" stroke="#0c3640" stroke-width="2"></path></g><g transform="translate(451 445)"><path d="M0 -25L21.7 -12.5L21.7 12.5L0 25L-21.7 12.5L-21.7 -12.5Z" fill="none" stroke="#0c3640" stroke-width="2"></path></g><g transform="translate(372 226)"><path d="M0 -23L19.9 -11.5L19.9 11.5L0 23L-19.9 11.5L-19.9 -11.5Z" fill="none" stroke="#0c3640" stroke-width="2"></path></g><g transform="translate(809 150)"><path d="M0 -21L18.2 -10.5L18.2 10.5L0 21L-18.2 10.5L-18.2 -10.5Z" fill="none" stroke="#0c3640" stroke-width="2"></path></g><g transform="translate(452 122)"><path d="M0 -19L16.5 -9.5L16.5 9.5L0 19L-16.5 9.5L-16.5 -9.5Z" stroke="#0c3640" fill="none" stroke-width="2"></path></g><g transform="translate(123 180)"><path d="M0 -34L29.4 -17L29.4 17L0 34L-29.4 17L-29.4 -17Z" stroke="#0c3640" fill="none" stroke-width="2"></path></g><g transform="translate(185 118)"><path d="M0 -25L21.7 -12.5L21.7 12.5L0 25L-21.7 12.5L-21.7 -12.5Z" stroke="#0c3640" fill="none" stroke-width="2"></path></g><g transform="translate(661 53)"><path d="M0 -26L22.5 -13L22.5 13L0 26L-22.5 13L-22.5 -13Z" stroke="#0c3640" fill="none" stroke-width="2"></path></g></g></svg>