<svg id="visual" viewBox="0 0 900 900" width="900" height="900" xmlns="http://www.w3.org/2000/svg" xmlns:xlink="http://www.w3.org/1999/xlink" version="1.1"><path d="M0 55L37.5 73C75 91 150 127 225 173.5C300 220 375 277 450 269.5C525 262 600 190 675 151C750 112 825 106 862.5 103L900 100L900 0L862.5 0C825 0 750 0 675 0C600 0 525 0 450 0C375 0 300 0 225 0C150 0 75 0 37.5 0L0 0Z" fill="#0f0913"></path><path d="M0 55L37.5 77.5C75 100 150 145 225 206.5C300 268 375 346 450 355C525 364 600 304 675 269.5C750 235 825 226 862.5 221.5L900 217L900 98L862.5 101C825 104 750 110 675 149C600 188 525 260 450 267.5C375 275 300 218 225 171.5C150 125 75 89 37.5 71L0 53Z" fill="#151a26"></path><path d="M0 388L37.5 425.5C75 463 150 538 225 547C300 556 375 499 450 460C525 421 600 400 675 403C750 406 825 433 862.5 446.5L900 460L900 215L862.5 219.5C825 224 750 233 675 267.5C600 302 525 362 450 353C375 344 300 266 225 204.5C150 143 75 98 37.5 75.5L0 53Z" fill="#122936"></path><path d="M0 442L37.5 490C75 538 150 634 225 647.5C300 661 375 592 450 553C525 514 600 505 675 499C750 493 825 490 862.5 488.5L900 487L900 458L862.5 444.5C825 431 750 404 675 401C600 398 525 419 450 458C375 497 300 554 225 545C150 536 75 461 37.5 423.5L0 386Z" fill="#0c3640"></path><path d="M0 550L37.5 581.5C75 613 150 676 225 691C300 706 375 673 450 635.5C525 598 600 556 675 535C750 514 825 514 862.5 514L900 514L900 485L862.5 486.5C825 488 750 491 675 497C600 503 525 512 450 551C375 590 300 659 225 645.5C150 632 75 536 37.5 488L0 440Z" fill="#0c3640"></path><path d="M0 595L37.5 625C75 655 150 715 225 749.5C300 784 375 793 450 779.5C525 766 600 730 675 709C750 688 825 682 862.5 679L900 676L900 512L862.5 512C825 512 750 512 675 533C600 554 525 596 450 633.5C375 671 300 704 225 689C150 674 75 611 37.5 579.5L0 548Z" fill="#122936"></path><path d="M0 811L37.5 808C75 805 150 799 225 814C300 829 375 865 450 881.5C525 898 600 895 675 869.5C750 844 825 796 862.5 772L900 748L900 674L862.5 677C825 680 750 686 675 707C600 728 525 764 450 777.5C375 791 300 782 225 747.5C150 713 75 653 37.5 623L0 593Z" fill="#151a26"></path><path d="M0 901L37.5 901C75 901 150 901 225 901C300 901 375 901 450 901C525 901 600 901 675 901C750 901 825 901 862.5 901L900 901L900 746L862.5 770C825 794 750 842 675 867.5C600 893 525 896 450 879.5C375 863 300 827 225 812C150 797 75 803 37.5 806L0 809Z" fill="#0f0913"></path></svg>