<svg id="visual" viewBox="0 0 960 540" width="960" height="540" xmlns="http://www.w3.org/2000/svg" xmlns:xlink="http://www.w3.org/1999/xlink" version="1.1"><path d="M0 136L22.8 139.7C45.7 143.3 91.3 150.7 137 163.3C182.7 176 228.3 194 274 194C319.7 194 365.3 176 411.2 160.7C457 145.3 503 132.7 548.8 127.2C594.7 121.7 640.3 123.3 686 133.2C731.7 143 777.3 161 823 162.8C868.7 164.7 914.3 150.3 937.2 143.2L960 136L960 0L937.2 0C914.3 0 868.7 0 823 0C777.3 0 731.7 0 686 0C640.3 0 594.7 0 548.8 0C503 0 457 0 411.2 0C365.3 0 319.7 0 274 0C228.3 0 182.7 0 137 0C91.3 0 45.7 0 22.8 0L0 0Z" fill="#0f0913"></path><path d="M0 174L22.8 176.7C45.7 179.3 91.3 184.7 137 195.5C182.7 206.3 228.3 222.7 274 221.8C319.7 221 365.3 203 411.2 190.3C457 177.7 503 170.3 548.8 168.5C594.7 166.7 640.3 170.3 686 181.2C731.7 192 777.3 210 823 211.8C868.7 213.7 914.3 199.3 937.2 192.2L960 185L960 134L937.2 141.2C914.3 148.3 868.7 162.7 823 160.8C777.3 159 731.7 141 686 131.2C640.3 121.3 594.7 119.7 548.8 125.2C503 130.7 457 143.3 411.2 158.7C365.3 174 319.7 192 274 192C228.3 192 182.7 174 137 161.3C91.3 148.7 45.7 141.3 22.8 137.7L0 134Z" fill="#14121c"></path><path d="M0 212L22.8 212.8C45.7 213.7 91.3 215.3 137 225.2C182.7 235 228.3 253 274 252.2C319.7 251.3 365.3 231.7 411.2 220C457 208.3 503 204.7 548.8 204.7C594.7 204.7 640.3 208.3 686 218.2C731.7 228 777.3 244 823 246.7C868.7 249.3 914.3 238.7 937.2 233.3L960 228L960 183L937.2 190.2C914.3 197.3 868.7 211.7 823 209.8C777.3 208 731.7 190 686 179.2C640.3 168.3 594.7 164.7 548.8 166.5C503 168.3 457 175.7 411.2 188.3C365.3 201 319.7 219 274 219.8C228.3 220.7 182.7 204.3 137 193.5C91.3 182.7 45.7 177.3 22.8 174.7L0 172Z" fill="#151924"></path><path d="M0 276L22.8 278.8C45.7 281.7 91.3 287.3 137 300.8C182.7 314.3 228.3 335.7 274 333.8C319.7 332 365.3 307 411.2 289C457 271 503 260 548.8 260.8C594.7 261.7 640.3 274.3 686 282.5C731.7 290.7 777.3 294.3 823 298C868.7 301.7 914.3 305.3 937.2 307.2L960 309L960 226L937.2 231.3C914.3 236.7 868.7 247.3 823 244.7C777.3 242 731.7 226 686 216.2C640.3 206.3 594.7 202.7 548.8 202.7C503 202.7 457 206.3 411.2 218C365.3 229.7 319.7 249.3 274 250.2C228.3 251 182.7 233 137 223.2C91.3 213.3 45.7 211.7 22.8 210.8L0 210Z" fill="#15202d"></path><path d="M0 352L22.8 353.8C45.7 355.7 91.3 359.3 137 368.3C182.7 377.3 228.3 391.7 274 394.3C319.7 397 365.3 388 411.2 372.7C457 357.3 503 335.7 548.8 337.5C594.7 339.3 640.3 364.7 686 372.8C731.7 381 777.3 372 823 366.5C868.7 361 914.3 359 937.2 358L960 357L960 307L937.2 305.2C914.3 303.3 868.7 299.7 823 296C777.3 292.3 731.7 288.7 686 280.5C640.3 272.3 594.7 259.7 548.8 258.8C503 258 457 269 411.2 287C365.3 305 319.7 330 274 331.8C228.3 333.7 182.7 312.3 137 298.8C91.3 285.3 45.7 279.7 22.8 276.8L0 274Z" fill="#132735"></path><path d="M0 406L22.8 409.7C45.7 413.3 91.3 420.7 137 427C182.7 433.3 228.3 438.7 274 435.8C319.7 433 365.3 422 411.2 411.2C457 400.3 503 389.7 548.8 396C594.7 402.3 640.3 425.7 686 432.8C731.7 440 777.3 431 823 424.7C868.7 418.3 914.3 414.7 937.2 412.8L960 411L960 355L937.2 356C914.3 357 868.7 359 823 364.5C777.3 370 731.7 379 686 370.8C640.3 362.7 594.7 337.3 548.8 335.5C503 333.7 457 355.3 411.2 370.7C365.3 386 319.7 395 274 392.3C228.3 389.7 182.7 375.3 137 366.3C91.3 357.3 45.7 353.7 22.8 351.8L0 350Z" fill="#102f3b"></path><path d="M0 541L22.8 541C45.7 541 91.3 541 137 541C182.7 541 228.3 541 274 541C319.7 541 365.3 541 411.2 541C457 541 503 541 548.8 541C594.7 541 640.3 541 686 541C731.7 541 777.3 541 823 541C868.7 541 914.3 541 937.2 541L960 541L960 409L937.2 410.8C914.3 412.7 868.7 416.3 823 422.7C777.3 429 731.7 438 686 430.8C640.3 423.7 594.7 400.3 548.8 394C503 387.7 457 398.3 411.2 409.2C365.3 420 319.7 431 274 433.8C228.3 436.7 182.7 431.3 137 425C91.3 418.7 45.7 411.3 22.8 407.7L0 404Z" fill="#0c3640"></path></svg>