<svg id="visual" viewBox="0 0 960 540" width="960" height="540" xmlns="http://www.w3.org/2000/svg" xmlns:xlink="http://www.w3.org/1999/xlink" version="1.1"><path d="M0 44L26.7 50.3C53.3 56.7 106.7 69.3 160 79.3C213.3 89.3 266.7 96.7 320 96.7C373.3 96.7 426.7 89.3 480 86.5C533.3 83.7 586.7 85.3 640 89C693.3 92.7 746.7 98.3 800 100.2C853.3 102 906.7 100 933.3 99L960 98L960 0L933.3 0C906.7 0 853.3 0 800 0C746.7 0 693.3 0 640 0C586.7 0 533.3 0 480 0C426.7 0 373.3 0 320 0C266.7 0 213.3 0 160 0C106.7 0 53.3 0 26.7 0L0 0Z" fill="#0f0913"></path><path d="M0 217L26.7 214.3C53.3 211.7 106.7 206.3 160 214.5C213.3 222.7 266.7 244.3 320 244.3C373.3 244.3 426.7 222.7 480 219C533.3 215.3 586.7 229.7 640 230.5C693.3 231.3 746.7 218.7 800 214.2C853.3 209.7 906.7 213.3 933.3 215.2L960 217L960 96L933.3 97C906.7 98 853.3 100 800 98.2C746.7 96.3 693.3 90.7 640 87C586.7 83.3 533.3 81.7 480 84.5C426.7 87.3 373.3 94.7 320 94.7C266.7 94.7 213.3 87.3 160 77.3C106.7 67.3 53.3 54.7 26.7 48.3L0 42Z" fill="#151620"></path><path d="M0 347L26.7 342.5C53.3 338 106.7 329 160 335.2C213.3 341.3 266.7 362.7 320 359C373.3 355.3 426.7 326.7 480 321.3C533.3 316 586.7 334 640 330.3C693.3 326.7 746.7 301.3 800 296C853.3 290.7 906.7 305.3 933.3 312.7L960 320L960 215L933.3 213.2C906.7 211.3 853.3 207.7 800 212.2C746.7 216.7 693.3 229.3 640 228.5C586.7 227.7 533.3 213.3 480 217C426.7 220.7 373.3 242.3 320 242.3C266.7 242.3 213.3 220.7 160 212.5C106.7 204.3 53.3 209.7 26.7 212.3L0 215Z" fill="#15202d"></path><path d="M0 482L26.7 478.3C53.3 474.7 106.7 467.3 160 469C213.3 470.7 266.7 481.3 320 483.2C373.3 485 426.7 478 480 472.7C533.3 467.3 586.7 463.7 640 468.2C693.3 472.7 746.7 485.3 800 492.5C853.3 499.7 906.7 501.3 933.3 502.2L960 503L960 318L933.3 310.7C906.7 303.3 853.3 288.7 800 294C746.7 299.3 693.3 324.7 640 328.3C586.7 332 533.3 314 480 319.3C426.7 324.7 373.3 353.3 320 357C266.7 360.7 213.3 339.3 160 333.2C106.7 327 53.3 336 26.7 340.5L0 345Z" fill="#112b38"></path><path d="M0 541L26.7 541C53.3 541 106.7 541 160 541C213.3 541 266.7 541 320 541C373.3 541 426.7 541 480 541C533.3 541 586.7 541 640 541C693.3 541 746.7 541 800 541C853.3 541 906.7 541 933.3 541L960 541L960 501L933.3 500.2C906.7 499.3 853.3 497.7 800 490.5C746.7 483.3 693.3 470.7 640 466.2C586.7 461.7 533.3 465.3 480 470.7C426.7 476 373.3 483 320 481.2C266.7 479.3 213.3 468.7 160 467C106.7 465.3 53.3 472.7 26.7 476.3L0 480Z" fill="#0c3640"></path></svg>