<svg id="visual" viewBox="0 0 960 540" width="960" height="540" xmlns="http://www.w3.org/2000/svg" xmlns:xlink="http://www.w3.org/1999/xlink" version="1.1"><path d="M0 141L22.8 153.7C45.7 166.3 91.3 191.7 137 185.5C182.7 179.3 228.3 141.7 274 127.3C319.7 113 365.3 122 411.2 138.2C457 154.3 503 177.7 548.8 174C594.7 170.3 640.3 139.7 686 137C731.7 134.3 777.3 159.7 823 162.3C868.7 165 914.3 145 937.2 135L960 125L960 0L937.2 0C914.3 0 868.7 0 823 0C777.3 0 731.7 0 686 0C640.3 0 594.7 0 548.8 0C503 0 457 0 411.2 0C365.3 0 319.7 0 274 0C228.3 0 182.7 0 137 0C91.3 0 45.7 0 22.8 0L0 0Z" fill="#0c3640"></path><path d="M0 266L22.8 275C45.7 284 91.3 302 137 298.3C182.7 294.7 228.3 269.3 274 254.8C319.7 240.3 365.3 236.7 411.2 243.8C457 251 503 269 548.8 282.5C594.7 296 640.3 305 686 300.5C731.7 296 777.3 278 823 275.3C868.7 272.7 914.3 285.3 937.2 291.7L960 298L960 123L937.2 133C914.3 143 868.7 163 823 160.3C777.3 157.7 731.7 132.3 686 135C640.3 137.7 594.7 168.3 548.8 172C503 175.7 457 152.3 411.2 136.2C365.3 120 319.7 111 274 125.3C228.3 139.7 182.7 177.3 137 183.5C91.3 189.7 45.7 164.3 22.8 151.7L0 139Z" fill="#102d3a"></path><path d="M0 309L22.8 316.2C45.7 323.3 91.3 337.7 137 333.2C182.7 328.7 228.3 305.3 274 297.2C319.7 289 365.3 296 411.2 305.8C457 315.7 503 328.3 548.8 335.7C594.7 343 640.3 345 686 337C731.7 329 777.3 311 823 313.7C868.7 316.3 914.3 339.7 937.2 351.3L960 363L960 296L937.2 289.7C914.3 283.3 868.7 270.7 823 273.3C777.3 276 731.7 294 686 298.5C640.3 303 594.7 294 548.8 280.5C503 267 457 249 411.2 241.8C365.3 234.7 319.7 238.3 274 252.8C228.3 267.3 182.7 292.7 137 296.3C91.3 300 45.7 282 22.8 273L0 264Z" fill="#142432"></path><path d="M0 352L22.8 363.7C45.7 375.3 91.3 398.7 137 393.3C182.7 388 228.3 354 274 342.3C319.7 330.7 365.3 341.3 411.2 353.8C457 366.3 503 380.7 548.8 389.7C594.7 398.7 640.3 402.3 686 397C731.7 391.7 777.3 377.3 823 375.5C868.7 373.7 914.3 384.3 937.2 389.7L960 395L960 361L937.2 349.3C914.3 337.7 868.7 314.3 823 311.7C777.3 309 731.7 327 686 335C640.3 343 594.7 341 548.8 333.7C503 326.3 457 313.7 411.2 303.8C365.3 294 319.7 287 274 295.2C228.3 303.3 182.7 326.7 137 331.2C91.3 335.7 45.7 321.3 22.8 314.2L0 307Z" fill="#151c28"></path><path d="M0 433L22.8 442C45.7 451 91.3 469 137 467.2C182.7 465.3 228.3 443.7 274 435.5C319.7 427.3 365.3 432.7 411.2 436.3C457 440 503 442 548.8 447.5C594.7 453 640.3 462 686 462C731.7 462 777.3 453 823 455.7C868.7 458.3 914.3 472.7 937.2 479.8L960 487L960 393L937.2 387.7C914.3 382.3 868.7 371.7 823 373.5C777.3 375.3 731.7 389.7 686 395C640.3 400.3 594.7 396.7 548.8 387.7C503 378.7 457 364.3 411.2 351.8C365.3 339.3 319.7 328.7 274 340.3C228.3 352 182.7 386 137 391.3C91.3 396.7 45.7 373.3 22.8 361.7L0 350Z" fill="#14141e"></path><path d="M0 541L22.8 541C45.7 541 91.3 541 137 541C182.7 541 228.3 541 274 541C319.7 541 365.3 541 411.2 541C457 541 503 541 548.8 541C594.7 541 640.3 541 686 541C731.7 541 777.3 541 823 541C868.7 541 914.3 541 937.2 541L960 541L960 485L937.2 477.8C914.3 470.7 868.7 456.3 823 453.7C777.3 451 731.7 460 686 460C640.3 460 594.7 451 548.8 445.5C503 440 457 438 411.2 434.3C365.3 430.7 319.7 425.3 274 433.5C228.3 441.7 182.7 463.3 137 465.2C91.3 467 45.7 449 22.8 440L0 431Z" fill="#0f0913"></path></svg>