<svg id="visual" viewBox="0 0 960 540" width="960" height="540" xmlns="http://www.w3.org/2000/svg" xmlns:xlink="http://www.w3.org/1999/xlink" version="1.1"><path d="M0 17L16 21.5C32 26 64 35 96 38.7C128 42.3 160 40.7 192 38.8C224 37 256 35 288 36.8C320 38.7 352 44.3 384 40.8C416 37.3 448 24.7 480 20.2C512 15.7 544 19.3 576 22C608 24.7 640 26.3 672 27.2C704 28 736 28 768 32.5C800 37 832 46 864 50.5C896 55 928 55 944 55L960 55L960 0L944 0C928 0 896 0 864 0C832 0 800 0 768 0C736 0 704 0 672 0C640 0 608 0 576 0C544 0 512 0 480 0C448 0 416 0 384 0C352 0 320 0 288 0C256 0 224 0 192 0C160 0 128 0 96 0C64 0 32 0 16 0L0 0Z" fill="#0c3640"></path><path d="M0 33L16 39.3C32 45.7 64 58.3 96 62C128 65.7 160 60.3 192 55C224 49.7 256 44.3 288 48C320 51.7 352 64.3 384 64.3C416 64.3 448 51.7 480 45.3C512 39 544 39 576 39.8C608 40.7 640 42.3 672 41.3C704 40.3 736 36.7 768 43C800 49.3 832 65.7 864 74.7C896 83.7 928 85.3 944 86.2L960 87L960 53L944 53C928 53 896 53 864 48.5C832 44 800 35 768 30.5C736 26 704 26 672 25.2C640 24.3 608 22.7 576 20C544 17.3 512 13.7 480 18.2C448 22.7 416 35.3 384 38.8C352 42.3 320 36.7 288 34.8C256 33 224 35 192 36.8C160 38.7 128 40.3 96 36.7C64 33 32 24 16 19.5L0 15Z" fill="#112c39"></path><path d="M0 44L16 56.7C32 69.3 64 94.7 96 102.8C128 111 160 102 192 90.3C224 78.7 256 64.3 288 66.2C320 68 352 86 384 89.5C416 93 448 82 480 75.7C512 69.3 544 67.7 576 65.8C608 64 640 62 672 63.8C704 65.7 736 71.3 768 76.8C800 82.3 832 87.7 864 91.2C896 94.7 928 96.3 944 97.2L960 98L960 85L944 84.2C928 83.3 896 81.7 864 72.7C832 63.7 800 47.3 768 41C736 34.7 704 38.3 672 39.3C640 40.3 608 38.7 576 37.8C544 37 512 37 480 43.3C448 49.7 416 62.3 384 62.3C352 62.3 320 49.7 288 46C256 42.3 224 47.7 192 53C160 58.3 128 63.7 96 60C64 56.3 32 43.7 16 37.3L0 31Z" fill="#15222f"></path><path d="M0 71L16 81C32 91 64 111 96 117.3C128 123.7 160 116.3 192 108.2C224 100 256 91 288 91C320 91 352 100 384 99.2C416 98.3 448 87.7 480 82.3C512 77 544 77 576 77.8C608 78.7 640 80.3 672 83.8C704 87.3 736 92.7 768 97.2C800 101.7 832 105.3 864 110.8C896 116.3 928 123.7 944 127.3L960 131L960 96L944 95.2C928 94.3 896 92.7 864 89.2C832 85.7 800 80.3 768 74.8C736 69.3 704 63.7 672 61.8C640 60 608 62 576 63.8C544 65.7 512 67.3 480 73.7C448 80 416 91 384 87.5C352 84 320 66 288 64.2C256 62.3 224 76.7 192 88.3C160 100 128 109 96 100.8C64 92.7 32 67.3 16 54.7L0 42Z" fill="#151824"></path><path d="M0 93L16 104.7C32 116.3 64 139.7 96 146C128 152.3 160 141.7 192 130C224 118.3 256 105.7 288 107.3C320 109 352 125 384 127.7C416 130.3 448 119.7 480 111.7C512 103.7 544 98.3 576 98.3C608 98.3 640 103.7 672 110C704 116.3 736 123.7 768 124.5C800 125.3 832 119.7 864 122.3C896 125 928 136 944 141.5L960 147L960 129L944 125.3C928 121.7 896 114.3 864 108.8C832 103.3 800 99.7 768 95.2C736 90.7 704 85.3 672 81.8C640 78.3 608 76.7 576 75.8C544 75 512 75 480 80.3C448 85.7 416 96.3 384 97.2C352 98 320 89 288 89C256 89 224 98 192 106.2C160 114.3 128 121.7 96 115.3C64 109 32 89 16 79L0 69Z" fill="#120e18"></path><path d="M0 109L16 122.5C32 136 64 163 96 172C128 181 160 172 192 157.7C224 143.3 256 123.7 288 126.3C320 129 352 154 384 162C416 170 448 161 480 153.8C512 146.7 544 141.3 576 136.8C608 132.3 640 128.7 672 130.5C704 132.3 736 139.7 768 146C800 152.3 832 157.7 864 160.3C896 163 928 163 944 163L960 163L960 145L944 139.5C928 134 896 123 864 120.3C832 117.7 800 123.3 768 122.5C736 121.7 704 114.3 672 108C640 101.7 608 96.3 576 96.3C544 96.3 512 101.7 480 109.7C448 117.7 416 128.3 384 125.7C352 123 320 107 288 105.3C256 103.7 224 116.3 192 128C160 139.7 128 150.3 96 144C64 137.7 32 114.3 16 102.7L0 91Z" fill="#0f0913"></path><path d="M0 147L16 160.5C32 174 64 201 96 206.3C128 211.7 160 195.3 192 181.8C224 168.3 256 157.7 288 160.3C320 163 352 179 384 191.5C416 204 448 213 480 218.5C512 224 544 226 576 213.5C608 201 640 174 672 164C704 154 736 161 768 174.5C800 188 832 208 864 218.8C896 229.7 928 231.3 944 232.2L960 233L960 161L944 161C928 161 896 161 864 158.3C832 155.7 800 150.3 768 144C736 137.7 704 130.3 672 128.5C640 126.7 608 130.3 576 134.8C544 139.3 512 144.7 480 151.8C448 159 416 168 384 160C352 152 320 127 288 124.3C256 121.7 224 141.3 192 155.7C160 170 128 179 96 170C64 161 32 134 16 120.5L0 107Z" fill="#0f0913"></path><path d="M0 266L16 275.8C32 285.7 64 305.3 96 308C128 310.7 160 296.3 192 285.5C224 274.7 256 267.3 288 270C320 272.7 352 285.3 384 290.8C416 296.3 448 294.7 480 292C512 289.3 544 285.7 576 282.8C608 280 640 278 672 272.5C704 267 736 258 768 263.5C800 269 832 289 864 290C896 291 928 273 944 264L960 255L960 231L944 230.2C928 229.3 896 227.7 864 216.8C832 206 800 186 768 172.5C736 159 704 152 672 162C640 172 608 199 576 211.5C544 224 512 222 480 216.5C448 211 416 202 384 189.5C352 177 320 161 288 158.3C256 155.7 224 166.3 192 179.8C160 193.3 128 209.7 96 204.3C64 199 32 172 16 158.5L0 145Z" fill="#120e18"></path><path d="M0 449L16 438.2C32 427.3 64 405.7 96 396.7C128 387.7 160 391.3 192 379.7C224 368 256 341 288 346.5C320 352 352 390 384 396.3C416 402.7 448 377.3 480 363.8C512 350.3 544 348.7 576 358.5C608 368.3 640 389.7 672 390.5C704 391.3 736 371.7 768 370.8C800 370 832 388 864 388.8C896 389.7 928 373.3 944 365.2L960 357L960 253L944 262C928 271 896 289 864 288C832 287 800 267 768 261.5C736 256 704 265 672 270.5C640 276 608 278 576 280.8C544 283.7 512 287.3 480 290C448 292.7 416 294.3 384 288.8C352 283.3 320 270.7 288 268C256 265.3 224 272.7 192 283.5C160 294.3 128 308.7 96 306C64 303.3 32 283.7 16 273.8L0 264Z" fill="#151824"></path><path d="M0 471L16 460.2C32 449.3 64 427.7 96 422.2C128 416.7 160 427.3 192 418.3C224 409.3 256 380.7 288 385.2C320 389.7 352 427.3 384 431.8C416 436.3 448 407.7 480 390.7C512 373.7 544 368.3 576 376.5C608 384.7 640 406.3 672 407.2C704 408 736 388 768 387C800 386 832 404 864 408.5C896 413 928 404 944 399.5L960 395L960 355L944 363.2C928 371.3 896 387.7 864 386.8C832 386 800 368 768 368.8C736 369.7 704 389.3 672 388.5C640 387.7 608 366.3 576 356.5C544 346.7 512 348.3 480 361.8C448 375.3 416 400.7 384 394.3C352 388 320 350 288 344.5C256 339 224 366 192 377.7C160 389.3 128 385.7 96 394.7C64 403.7 32 425.3 16 436.2L0 447Z" fill="#15222f"></path><path d="M0 498L16 487.2C32 476.3 64 454.7 96 452C128 449.3 160 465.7 192 455.8C224 446 256 410 288 411.7C320 413.3 352 452.7 384 457.2C416 461.7 448 431.3 480 412.5C512 393.7 544 386.3 576 394.3C608 402.3 640 425.7 672 430.2C704 434.7 736 420.3 768 423C800 425.7 832 445.3 864 449.8C896 454.3 928 443.7 944 438.3L960 433L960 393L944 397.5C928 402 896 411 864 406.5C832 402 800 384 768 385C736 386 704 406 672 405.2C640 404.3 608 382.7 576 374.5C544 366.3 512 371.7 480 388.7C448 405.7 416 434.3 384 429.8C352 425.3 320 387.7 288 383.2C256 378.7 224 407.3 192 416.3C160 425.3 128 414.7 96 420.2C64 425.7 32 447.3 16 458.2L0 469Z" fill="#112c39"></path><path d="M0 541L16 541C32 541 64 541 96 541C128 541 160 541 192 541C224 541 256 541 288 541C320 541 352 541 384 541C416 541 448 541 480 541C512 541 544 541 576 541C608 541 640 541 672 541C704 541 736 541 768 541C800 541 832 541 864 541C896 541 928 541 944 541L960 541L960 431L944 436.3C928 441.7 896 452.3 864 447.8C832 443.3 800 423.7 768 421C736 418.3 704 432.7 672 428.2C640 423.7 608 400.3 576 392.3C544 384.3 512 391.7 480 410.5C448 429.3 416 459.7 384 455.2C352 450.7 320 411.3 288 409.7C256 408 224 444 192 453.8C160 463.7 128 447.3 96 450C64 452.7 32 474.3 16 485.2L0 496Z" fill="#0c3640"></path></svg>