<svg id="visual" viewBox="0 0 450 900" width="450" height="900" xmlns="http://www.w3.org/2000/svg" xmlns:xlink="http://www.w3.org/1999/xlink" version="1.1"><path d="M0 55L12.5 53.5C25 52 50 49 75 46C100 43 125 40 150 40C175 40 200 43 225 43C250 43 275 40 300 40C325 40 350 43 375 41.5C400 40 425 34 437.5 31L450 28L450 0L437.5 0C425 0 400 0 375 0C350 0 325 0 300 0C275 0 250 0 225 0C200 0 175 0 150 0C125 0 100 0 75 0C50 0 25 0 12.5 0L0 0Z" fill="#0f0913"></path><path d="M0 109L12.5 109C25 109 50 109 75 106C100 103 125 97 150 92.5C175 88 200 85 225 88C250 91 275 100 300 100C325 100 350 91 375 83.5C400 76 425 70 437.5 67L450 64L450 26L437.5 29C425 32 400 38 375 39.5C350 41 325 38 300 38C275 38 250 41 225 41C200 41 175 38 150 38C125 38 100 41 75 44C50 47 25 50 12.5 51.5L0 53Z" fill="#15151f"></path><path d="M0 145L12.5 148C25 151 50 157 75 157C100 157 125 151 150 145C175 139 200 133 225 131.5C250 130 275 133 300 133C325 133 350 130 375 125.5C400 121 425 115 437.5 112L450 109L450 62L437.5 65C425 68 400 74 375 81.5C350 89 325 98 300 98C275 98 250 89 225 86C200 83 175 86 150 90.5C125 95 100 101 75 104C50 107 25 107 12.5 107L0 107Z" fill="#151e2b"></path><path d="M0 190L12.5 191.5C25 193 50 196 75 194.5C100 193 125 187 150 188.5C175 190 200 199 225 199C250 199 275 190 300 184C325 178 350 175 375 175C400 175 425 178 437.5 179.5L450 181L450 107L437.5 110C425 113 400 119 375 123.5C350 128 325 131 300 131C275 131 250 128 225 129.5C200 131 175 137 150 143C125 149 100 155 75 155C50 155 25 149 12.5 146L0 143Z" fill="#132835"></path><path d="M0 271L12.5 268C25 265 50 259 75 253C100 247 125 241 150 242.5C175 244 200 253 225 263.5C250 274 275 286 300 289C325 292 350 286 375 280C400 274 425 268 437.5 265L450 262L450 179L437.5 177.5C425 176 400 173 375 173C350 173 325 176 300 182C275 188 250 197 225 197C200 197 175 188 150 186.5C125 185 100 191 75 192.5C50 194 25 191 12.5 189.5L0 188Z" fill="#0e323d"></path><path d="M0 316L12.5 310C25 304 50 292 75 283C100 274 125 268 150 271C175 274 200 286 225 298C250 310 275 322 300 323.5C325 325 350 316 375 307C400 298 425 289 437.5 284.5L450 280L450 260L437.5 263C425 266 400 272 375 278C350 284 325 290 300 287C275 284 250 272 225 261.5C200 251 175 242 150 240.5C125 239 100 245 75 251C50 257 25 263 12.5 266L0 269Z" fill="#0c3640"></path><path d="M0 343L12.5 341.5C25 340 50 337 75 334C100 331 125 328 150 328C175 328 200 331 225 337C250 343 275 352 300 358C325 364 350 367 375 359.5C400 352 425 334 437.5 325L450 316L450 278L437.5 282.5C425 287 400 296 375 305C350 314 325 323 300 321.5C275 320 250 308 225 296C200 284 175 272 150 269C125 266 100 272 75 281C50 290 25 302 12.5 308L0 314Z" fill="#0c3640"></path><path d="M0 433L12.5 430C25 427 50 421 75 416.5C100 412 125 409 150 407.5C175 406 200 406 225 412C250 418 275 430 300 439C325 448 350 454 375 446.5C400 439 425 418 437.5 407.5L450 397L450 314L437.5 323C425 332 400 350 375 357.5C350 365 325 362 300 356C275 350 250 341 225 335C200 329 175 326 150 326C125 326 100 329 75 332C50 335 25 338 12.5 339.5L0 341Z" fill="#0e323d"></path><path d="M0 622L12.5 617.5C25 613 50 604 75 587.5C100 571 125 547 150 547C175 547 200 571 225 589C250 607 275 619 300 619C325 619 350 607 375 587.5C400 568 425 541 437.5 527.5L450 514L450 395L437.5 405.5C425 416 400 437 375 444.5C350 452 325 446 300 437C275 428 250 416 225 410C200 404 175 404 150 405.5C125 407 100 410 75 414.5C50 419 25 425 12.5 428L0 431Z" fill="#132835"></path><path d="M0 784L12.5 773.5C25 763 50 742 75 730C100 718 125 715 150 725.5C175 736 200 760 225 769C250 778 275 772 300 766C325 760 350 754 375 752.5C400 751 425 754 437.5 755.5L450 757L450 512L437.5 525.5C425 539 400 566 375 585.5C350 605 325 617 300 617C275 617 250 605 225 587C200 569 175 545 150 545C125 545 100 569 75 585.5C50 602 25 611 12.5 615.5L0 620Z" fill="#151e2b"></path><path d="M0 865L12.5 865C25 865 50 865 75 863.5C100 862 125 859 150 860.5C175 862 200 868 225 872.5C250 877 275 880 300 878.5C325 877 350 871 375 869.5C400 868 425 871 437.5 872.5L450 874L450 755L437.5 753.5C425 752 400 749 375 750.5C350 752 325 758 300 764C275 770 250 776 225 767C200 758 175 734 150 723.5C125 713 100 716 75 728C50 740 25 761 12.5 771.5L0 782Z" fill="#15151f"></path><path d="M0 901L12.5 901C25 901 50 901 75 901C100 901 125 901 150 901C175 901 200 901 225 901C250 901 275 901 300 901C325 901 350 901 375 901C400 901 425 901 437.5 901L450 901L450 872L437.5 870.5C425 869 400 866 375 867.5C350 869 325 875 300 876.5C275 878 250 875 225 870.5C200 866 175 860 150 858.5C125 857 100 860 75 861.5C50 863 25 863 12.5 863L0 863Z" fill="#0f0913"></path></svg>