<svg id="visual" viewBox="0 0 960 540" width="960" height="540" xmlns="http://www.w3.org/2000/svg" xmlns:xlink="http://www.w3.org/1999/xlink" version="1.1"><path d="M0 131L22.8 138.2C45.7 145.3 91.3 159.7 137 157.8C182.7 156 228.3 138 274 120.8C319.7 103.7 365.3 87.3 411.2 81C457 74.7 503 78.3 548.8 91C594.7 103.7 640.3 125.3 686 138.8C731.7 152.3 777.3 157.7 823 146.8C868.7 136 914.3 109 937.2 95.5L960 82L960 0L937.2 0C914.3 0 868.7 0 823 0C777.3 0 731.7 0 686 0C640.3 0 594.7 0 548.8 0C503 0 457 0 411.2 0C365.3 0 319.7 0 274 0C228.3 0 182.7 0 137 0C91.3 0 45.7 0 22.8 0L0 0Z" fill="#0c3640"></path><path d="M0 212L22.8 213.7C45.7 215.3 91.3 218.7 137 211.3C182.7 204 228.3 186 274 176.2C319.7 166.3 365.3 164.7 411.2 160.2C457 155.7 503 148.3 548.8 155.5C594.7 162.7 640.3 184.3 686 197.8C731.7 211.3 777.3 216.7 823 209.5C868.7 202.3 914.3 182.7 937.2 172.8L960 163L960 80L937.2 93.5C914.3 107 868.7 134 823 144.8C777.3 155.7 731.7 150.3 686 136.8C640.3 123.3 594.7 101.7 548.8 89C503 76.3 457 72.7 411.2 79C365.3 85.3 319.7 101.7 274 118.8C228.3 136 182.7 154 137 155.8C91.3 157.7 45.7 143.3 22.8 136.2L0 129Z" fill="#0f303c"></path><path d="M0 244L22.8 247.7C45.7 251.3 91.3 258.7 137 255C182.7 251.3 228.3 236.7 274 227.7C319.7 218.7 365.3 215.3 411.2 210C457 204.7 503 197.3 548.8 202.7C594.7 208 640.3 226 686 240.3C731.7 254.7 777.3 265.3 823 260C868.7 254.7 914.3 233.3 937.2 222.7L960 212L960 161L937.2 170.8C914.3 180.7 868.7 200.3 823 207.5C777.3 214.7 731.7 209.3 686 195.8C640.3 182.3 594.7 160.7 548.8 153.5C503 146.3 457 153.7 411.2 158.2C365.3 162.7 319.7 164.3 274 174.2C228.3 184 182.7 202 137 209.3C91.3 216.7 45.7 213.3 22.8 211.7L0 210Z" fill="#112b38"></path><path d="M0 325L22.8 325.8C45.7 326.7 91.3 328.3 137 318.5C182.7 308.7 228.3 287.3 274 276.7C319.7 266 365.3 266 411.2 264.2C457 262.3 503 258.7 548.8 261.3C594.7 264 640.3 273 686 284.7C731.7 296.3 777.3 310.7 823 308.8C868.7 307 914.3 289 937.2 280L960 271L960 210L937.2 220.7C914.3 231.3 868.7 252.7 823 258C777.3 263.3 731.7 252.7 686 238.3C640.3 224 594.7 206 548.8 200.7C503 195.3 457 202.7 411.2 208C365.3 213.3 319.7 216.7 274 225.7C228.3 234.7 182.7 249.3 137 253C91.3 256.7 45.7 249.3 22.8 245.7L0 242Z" fill="#142533"></path><path d="M0 347L22.8 348.7C45.7 350.3 91.3 353.7 137 343.7C182.7 333.7 228.3 310.3 274 297.8C319.7 285.3 365.3 283.7 411.2 281C457 278.3 503 274.7 548.8 281C594.7 287.3 640.3 303.7 686 317.2C731.7 330.7 777.3 341.3 823 338.5C868.7 335.7 914.3 319.3 937.2 311.2L960 303L960 269L937.2 278C914.3 287 868.7 305 823 306.8C777.3 308.7 731.7 294.3 686 282.7C640.3 271 594.7 262 548.8 259.3C503 256.7 457 260.3 411.2 262.2C365.3 264 319.7 264 274 274.7C228.3 285.3 182.7 306.7 137 316.5C91.3 326.3 45.7 324.7 22.8 323.8L0 323Z" fill="#15202d"></path><path d="M0 368L22.8 371.7C45.7 375.3 91.3 382.7 137 375.5C182.7 368.3 228.3 346.7 274 333.2C319.7 319.7 365.3 314.3 411.2 312.5C457 310.7 503 312.3 548.8 318.7C594.7 325 640.3 336 686 349.5C731.7 363 777.3 379 823 377.2C868.7 375.3 914.3 355.7 937.2 345.8L960 336L960 301L937.2 309.2C914.3 317.3 868.7 333.7 823 336.5C777.3 339.3 731.7 328.7 686 315.2C640.3 301.7 594.7 285.3 548.8 279C503 272.7 457 276.3 411.2 279C365.3 281.7 319.7 283.3 274 295.8C228.3 308.3 182.7 331.7 137 341.7C91.3 351.7 45.7 348.3 22.8 346.7L0 345Z" fill="#151b27"></path><path d="M0 417L22.8 419.7C45.7 422.3 91.3 427.7 137 416C182.7 404.3 228.3 375.7 274 360.3C319.7 345 365.3 343 411.2 343C457 343 503 345 548.8 354C594.7 363 640.3 379 686 390.7C731.7 402.3 777.3 409.7 823 407.8C868.7 406 914.3 395 937.2 389.5L960 384L960 334L937.2 343.8C914.3 353.7 868.7 373.3 823 375.2C777.3 377 731.7 361 686 347.5C640.3 334 594.7 323 548.8 316.7C503 310.3 457 308.7 411.2 310.5C365.3 312.3 319.7 317.7 274 331.2C228.3 344.7 182.7 366.3 137 373.5C91.3 380.7 45.7 373.3 22.8 369.7L0 366Z" fill="#151620"></path><path d="M0 455L22.8 455.8C45.7 456.7 91.3 458.3 137 449.3C182.7 440.3 228.3 420.7 274 409.8C319.7 399 365.3 397 411.2 392.5C457 388 503 381 548.8 385.5C594.7 390 640.3 406 686 419.5C731.7 433 777.3 444 823 446.7C868.7 449.3 914.3 443.7 937.2 440.8L960 438L960 382L937.2 387.5C914.3 393 868.7 404 823 405.8C777.3 407.7 731.7 400.3 686 388.7C640.3 377 594.7 361 548.8 352C503 343 457 341 411.2 341C365.3 341 319.7 343 274 358.3C228.3 373.7 182.7 402.3 137 414C91.3 425.7 45.7 420.3 22.8 417.7L0 415Z" fill="#13101a"></path><path d="M0 541L22.8 541C45.7 541 91.3 541 137 541C182.7 541 228.3 541 274 541C319.7 541 365.3 541 411.2 541C457 541 503 541 548.8 541C594.7 541 640.3 541 686 541C731.7 541 777.3 541 823 541C868.7 541 914.3 541 937.2 541L960 541L960 436L937.2 438.8C914.3 441.7 868.7 447.3 823 444.7C777.3 442 731.7 431 686 417.5C640.3 404 594.7 388 548.8 383.5C503 379 457 386 411.2 390.5C365.3 395 319.7 397 274 407.8C228.3 418.7 182.7 438.3 137 447.3C91.3 456.3 45.7 454.7 22.8 453.8L0 453Z" fill="#0f0913"></path></svg>