<svg id="visual" viewBox="0 0 900 450" width="900" height="450" xmlns="http://www.w3.org/2000/svg" xmlns:xlink="http://www.w3.org/1999/xlink" version="1.1"><rect width="900" height="450" fill="#0f0913"></rect><g><g transform="translate(50 180)"><path d="M0 -37.2L32.2 -18.6L32.2 18.6L0 37.2L-32.2 18.6L-32.2 -18.6Z" fill="none" stroke="#0c3640" stroke-width="5"></path></g><g transform="translate(396 70)"><path d="M0 -33L28.6 -16.5L28.6 16.5L0 33L-28.6 16.5L-28.6 -16.5Z" fill="none" stroke="#0c3640" stroke-width="5"></path></g><g transform="translate(591 226)"><path d="M0 -23L19.9 -11.5L19.9 11.5L0 23L-19.9 11.5L-19.9 -11.5Z" stroke="#0c3640" fill="none" stroke-width="5"></path></g><g transform="translate(56 50)"><path d="M0 -21L18.2 -10.5L18.2 10.5L0 21L-18.2 10.5L-18.2 -10.5Z" stroke="#0c3640" fill="none" stroke-width="5"></path></g><g transform="translate(434 308)"><path d="M0 -18L15.6 -9L15.6 9L0 18L-15.6 9L-15.6 -9Z" stroke="#0c3640" fill="none" stroke-width="5"></path></g><g transform="translate(519 181)"><path d="M0 -27L23.4 -13.5L23.4 13.5L0 27L-23.4 13.5L-23.4 -13.5Z" stroke="#0c3640" fill="none" stroke-width="5"></path></g><g transform="translate(258 299)"><path d="M0 -23L19.9 -11.5L19.9 11.5L0 23L-19.9 11.5L-19.9 -11.5Z" stroke="#0c3640" fill="none" stroke-width="5"></path></g><g transform="translate(651 136)"><path d="M0 -26L22.5 -13L22.5 13L0 26L-22.5 13L-22.5 -13Z" stroke="#0c3640" fill="none" stroke-width="5"></path></g><g transform="translate(530 395)"><path d="M0 -27L23.4 -13.5L23.4 13.5L0 27L-23.4 13.5L-23.4 -13.5Z" stroke="#0c3640" fill="none" stroke-width="5"></path></g><g transform="translate(666 258)"><path d="M0 -33L28.6 -16.5L28.6 16.5L0 33L-28.6 16.5L-28.6 -16.5Z" stroke="#0c3640" fill="none" stroke-width="5"></path></g><g transform="translate(89 390)"><path d="M0 -22L19.1 -11L19.1 11L0 22L-19.1 11L-19.1 -11Z" stroke="#0c3640" fill="none" stroke-width="5"></path></g></g></svg>