<svg id="visual" viewBox="0 0 960 540" width="960" height="540" xmlns="http://www.w3.org/2000/svg" xmlns:xlink="http://www.w3.org/1999/xlink" version="1.1"><path d="M0 17L40 43.2C80 69.3 160 121.7 240 118.8C320 116 400 58 480 41.8C560 25.7 640 51.3 720 67.7C800 84 880 91 920 94.5L960 98L960 0L920 0C880 0 800 0 720 0C640 0 560 0 480 0C400 0 320 0 240 0C160 0 80 0 40 0L0 0Z" fill="#0f0913"></path><path d="M0 28L40 55.8C80 83.7 160 139.3 240 138.5C320 137.7 400 80.3 480 67.8C560 55.3 640 87.7 720 113.7C800 139.7 880 159.3 920 169.2L960 179L960 96L920 92.5C880 89 800 82 720 66C640 50 560 25 480 41.2C400 57.3 320 114.7 240 117.2C160 119.7 80 67.3 40 41.2L0 15Z" fill="#151620"></path><path d="M0 114L40 139.3C80 164.7 160 215.3 240 205.5C320 195.7 400 125.3 480 102.8C560 80.3 640 105.7 720 139C800 172.3 880 213.7 920 234.3L960 255L960 177L920 167.2C880 157.3 800 137.7 720 111.7C640 85.7 560 53.3 480 65.8C400 78.3 320 135.7 240 136.5C160 137.3 80 81.7 40 53.8L0 26Z" fill="#15202d"></path><path d="M0 141L40 164.5C80 188 160 235 240 227.8C320 220.7 400 159.3 480 136.8C560 114.3 640 130.7 720 158.7C800 186.7 880 226.3 920 246.2L960 266L960 253L920 232.3C880 211.7 800 170.3 720 137C640 103.7 560 78.3 480 100.8C400 123.3 320 193.7 240 203.5C160 213.3 80 162.7 40 137.3L0 112Z" fill="#112b38"></path><path d="M0 168L40 198.7C80 229.3 160 290.7 240 283.5C320 276.3 400 200.7 480 175.5C560 150.3 640 175.7 720 203.7C800 231.7 880 262.3 920 277.7L960 293L960 264L920 244.2C880 224.3 800 184.7 720 156.7C640 128.7 560 112.3 480 134.8C400 157.3 320 218.7 240 225.8C160 233 80 186 40 162.5L0 139Z" fill="#0c3640"></path><path d="M0 239L40 264.2C80 289.3 160 339.7 240 334.2C320 328.7 400 267.3 480 244.8C560 222.3 640 238.7 720 259.3C800 280 880 305 920 317.5L960 330L960 291L920 275.7C880 260.3 800 229.7 720 201.7C640 173.7 560 148.3 480 173.5C400 198.7 320 274.3 240 281.5C160 288.7 80 227.3 40 196.7L0 166Z" fill="#0c3640"></path><path d="M0 239L40 269.5C80 300 160 361 240 362.7C320 364.3 400 306.7 480 279.7C560 252.7 640 256.3 720 271.7C800 287 880 314 920 327.5L960 341L960 328L920 315.5C880 303 800 278 720 257.3C640 236.7 560 220.3 480 242.8C400 265.3 320 326.7 240 332.2C160 337.7 80 287.3 40 262.2L0 237Z" fill="#0c3640"></path><path d="M0 249L40 285C80 321 160 393 240 399.3C320 405.7 400 346.3 480 319.3C560 292.3 640 297.7 720 315.7C800 333.7 880 364.3 920 379.7L960 395L960 339L920 325.5C880 312 800 285 720 269.7C640 254.3 560 250.7 480 277.7C400 304.7 320 362.3 240 360.7C160 359 80 298 40 267.5L0 237Z" fill="#112b38"></path><path d="M0 293L40 327.2C80 361.3 160 429.7 240 430.5C320 431.3 400 364.7 480 342.2C560 319.7 640 341.3 720 362C800 382.7 880 402.3 920 412.2L960 422L960 393L920 377.7C880 362.3 800 331.7 720 313.7C640 295.7 560 290.3 480 317.3C400 344.3 320 403.7 240 397.3C160 391 80 319 40 283L0 247Z" fill="#15202d"></path><path d="M0 314L40 349.2C80 384.3 160 454.7 240 454.7C320 454.7 400 384.3 480 364.5C560 344.7 640 375.3 720 400.5C800 425.7 880 445.3 920 455.2L960 465L960 420L920 410.2C880 400.3 800 380.7 720 360C640 339.3 560 317.7 480 340.2C400 362.7 320 429.3 240 428.5C160 427.7 80 359.3 40 325.2L0 291Z" fill="#151620"></path><path d="M0 541L40 541C80 541 160 541 240 541C320 541 400 541 480 541C560 541 640 541 720 541C800 541 880 541 920 541L960 541L960 463L920 453.2C880 443.3 800 423.7 720 398.5C640 373.3 560 342.7 480 362.5C400 382.3 320 452.7 240 452.7C160 452.7 80 382.3 40 347.2L0 312Z" fill="#0f0913"></path></svg>